<svg xmlns="http://www.w3.org/2000/svg" viewBox="0 0 900 650" role="img" aria-labelledby="title desc">
  <title id="title">Generic classroom guidance illustration</title>
  <desc id="desc">A teacher beside a classroom board with students seated and learning.</desc>
  <defs>
    <linearGradient id="bg" x1="0" y1="0" x2="1" y2="1">
      <stop offset="0%" stop-color="#eff5fc"/>
      <stop offset="100%" stop-color="#f7efe2"/>
    </linearGradient>
  </defs>
  <rect width="900" height="650" fill="url(#bg)"/>
  <rect y="516" width="900" height="134" fill="#d7c39b"/>
  <rect x="114" y="94" width="474" height="272" rx="20" fill="#1e476e" stroke="#102a4a" stroke-width="10"/>
  <rect x="142" y="122" width="418" height="216" rx="12" fill="#e9f2fb"/>
  <g opacity="0.9">
    <rect x="176" y="160" width="154" height="18" rx="9" fill="#c0863d"/>
    <rect x="176" y="198" width="248" height="14" rx="7" fill="#aac0d6"/>
    <rect x="176" y="228" width="218" height="14" rx="7" fill="#aac0d6"/>
    <rect x="176" y="258" width="268" height="14" rx="7" fill="#aac0d6"/>
  </g>
  <g transform="translate(584 190)">
    <circle cx="92" cy="68" r="44" fill="#f1c3a4"/>
    <path d="M46 72c6-38 30-60 62-60 34 0 60 24 62 60-16-8-34-12-62-12-24 0-42 4-62 12z" fill="#17365f"/>
    <rect x="44" y="116" width="96" height="158" rx="28" fill="#c0863d"/>
    <rect x="16" y="154" width="50" height="118" rx="18" fill="#f1c3a4"/>
    <rect x="118" y="152" width="50" height="120" rx="18" fill="#f1c3a4"/>
    <rect x="58" y="274" width="34" height="132" rx="16" fill="#17365f"/>
    <rect x="98" y="274" width="34" height="132" rx="16" fill="#17365f"/>
    <path d="M16 210h150" stroke="#102a4a" stroke-width="12" stroke-linecap="round"/>
    <circle cx="168" cy="210" r="16" fill="#102a4a"/>
  </g>
  <g transform="translate(132 394)">
    <g transform="translate(0 0)">
      <rect x="0" y="40" width="148" height="24" rx="12" fill="#8b6a4a"/>
      <rect x="20" y="64" width="12" height="74" rx="6" fill="#8b6a4a"/>
      <rect x="116" y="64" width="12" height="74" rx="6" fill="#8b6a4a"/>
      <circle cx="74" cy="16" r="24" fill="#f3c7aa"/>
      <rect x="44" y="42" width="60" height="68" rx="18" fill="#6f9a61"/>
    </g>
    <g transform="translate(194 0)">
      <rect x="0" y="40" width="148" height="24" rx="12" fill="#8b6a4a"/>
      <rect x="20" y="64" width="12" height="74" rx="6" fill="#8b6a4a"/>
      <rect x="116" y="64" width="12" height="74" rx="6" fill="#8b6a4a"/>
      <circle cx="74" cy="16" r="24" fill="#efbea0"/>
      <rect x="44" y="42" width="60" height="68" rx="18" fill="#17365f"/>
    </g>
    <g transform="translate(388 0)">
      <rect x="0" y="40" width="148" height="24" rx="12" fill="#8b6a4a"/>
      <rect x="20" y="64" width="12" height="74" rx="6" fill="#8b6a4a"/>
      <rect x="116" y="64" width="12" height="74" rx="6" fill="#8b6a4a"/>
      <circle cx="74" cy="16" r="24" fill="#f3c8ad"/>
      <rect x="44" y="42" width="60" height="68" rx="18" fill="#c0863d"/>
    </g>
  </g>
  <g fill="#c0863d" opacity="0.9">
    <circle cx="724" cy="122" r="12"/>
    <circle cx="768" cy="90" r="8"/>
    <circle cx="806" cy="130" r="10"/>
  </g>
</svg>
